# xmcd
#
# Track frame offsets:
#	150
#	19460
#	37734
#	63382
#	77463
#	89201
#	108127
#	134947
#	154649
#	178889
#	195043
#
# Disc length: 2835 seconds
#
# Revision: 1
# Processed by: cddbd v1.5.2PL0 Copyright (c) Steve Scherf et al.
# Submitted via: audiograbber 1.83.01
#
DISCID=8b0b110b
DTITLE=Sweet Suzi and the Blues Experience - Unbroken
DYEAR=2008
DGENRE=Blues
TTITLE0=Bad Axe
TTITLE1=Unbroken
TTITLE2=Does Your  Wife Know
TTITLE3=Shadows
TTITLE4=Mama
TTITLE5=Your Mama's Talkin'
TTITLE6=I'd Rather Go Blind
TTITLE7=Pretty Little Lies
TTITLE8=God Bless The Child
TTITLE9=Slippin' Out, Slippin' In
TTITLE10=The Weight
EXTD=
EXTT0=
EXTT1=
EXTT2=
EXTT3=
EXTT4=
EXTT5=
EXTT6=
EXTT7=
EXTT8=
EXTT9=
EXTT10=
PLAYORDER=
